<svg xmlns="http://www.w3.org/2000/svg" version="1.1" xmlns:xlink="http://www.w3.org/1999/xlink" xmlns:svgjs="http://svgjs.dev/svgjs" width="1920" height="1080" preserveAspectRatio="none" viewBox="0 0 1920 1080"><g mask="url(&quot;#SvgjsMask1026&quot;)" fill="none"><rect width="1920" height="1080" x="0" y="0" fill="rgba(29, 31, 30, 1)"></rect><path d="M1502.43 12.16L1601.6 12.16L1601.6 39.38L1502.43 39.38z" fill="rgba(52, 54, 53, 1)"></path><path d="M821.04 774.66L882.26 774.66L882.26 835.88L821.04 835.88z" stroke="rgba(52, 54, 53, 1)"></path><path d="M-6.55 806.81 a47.92 47.92 0 1 0 95.84 0 a47.92 47.92 0 1 0 -95.84 0z" fill="rgba(52, 54, 53, 1)"></path><path d="M491.61 237.32a82.79 82.79 0 1 0-26.34-163.47z" fill="rgba(52, 54, 53, 1)"></path><path d="M672.09 1025.74L763.05 1025.74L763.05 1116.7L672.09 1116.7z" stroke="rgba(52, 54, 53, 1)"></path><path d="M293.39 817.7a31.85 31.85 0 1 0 55.48-31.31z" fill="rgba(52, 54, 53, 1)"></path><path d="M1377.94 451.7 a24.61 24.61 0 1 0 49.22 0 a24.61 24.61 0 1 0 -49.22 0z" stroke="rgba(52, 54, 53, 1)"></path><path d="M1204.37 107.12 a26.64 26.64 0 1 0 53.28 0 a26.64 26.64 0 1 0 -53.28 0z" fill="rgba(52, 54, 53, 1)"></path><path d="M1569.17 503.73a15.96 15.96 0 1 0 20.35-24.59z" fill="rgba(52, 54, 53, 1)"></path><path d="M1588.84 291.6L1663.56 291.6L1663.56 332.94L1588.84 332.94z" fill="rgba(52, 54, 53, 1)"></path><path d="M1347.99 1039.15L1427.56 1039.15L1427.56 1050.74L1347.99 1050.74z" fill="rgba(52, 54, 53, 1)"></path><path d="M848.79 1019.27L862.1 1019.27L862.1 1032.58L848.79 1032.58z" fill="rgba(52, 54, 53, 1)"></path><path d="M936.2 798.78L983.35 798.78L983.35 845.93L936.2 845.93z" stroke="rgba(52, 54, 53, 1)"></path><path d="M1115.6 880.87a75.59 75.59 0 1 0 112.06 101.48z" fill="rgba(52, 54, 53, 1)"></path><path d="M1113.37 1009.34 a73.18 73.18 0 1 0 146.36 0 a73.18 73.18 0 1 0 -146.36 0z" stroke="rgba(52, 54, 53, 1)"></path><path d="M1339.67 245.97a48.5 48.5 0 1 0-80.89-53.53z" fill="rgba(52, 54, 53, 1)"></path><path d="M921.82 791.43 a2.79 2.79 0 1 0 5.58 0 a2.79 2.79 0 1 0 -5.58 0z" fill="rgba(52, 54, 53, 1)"></path><path d="M196.67 901.52L250.44 901.52L250.44 955.29L196.67 955.29z" stroke="rgba(52, 54, 53, 1)"></path><path d="M1657.52 236.28a67.53 67.53 0 1 0-59.61 121.19z" stroke="rgba(52, 54, 53, 1)"></path><path d="M750.94 373.51L792.11 373.51L792.11 414.68L750.94 414.68z" stroke="rgba(52, 54, 53, 1)"></path><path d="M1707.03 775.48L1765.49 775.48L1765.49 833.94L1707.03 833.94z" fill="rgba(52, 54, 53, 1)"></path><path d="M1150.84 689.51 a54.27 54.27 0 1 0 108.54 0 a54.27 54.27 0 1 0 -108.54 0z" fill="rgba(52, 54, 53, 1)"></path><path d="M206.04 634.37 a75.96 75.96 0 1 0 151.92 0 a75.96 75.96 0 1 0 -151.92 0z" fill="rgba(52, 54, 53, 1)"></path></g><defs><mask id="SvgjsMask1026"><rect width="1920" height="1080" fill="#ffffff"></rect></mask></defs></svg>