<svg xmlns="http://www.w3.org/2000/svg" version="1.1" xmlns:xlink="http://www.w3.org/1999/xlink" xmlns:svgjs="http://svgjs.dev/svgjs" width="1920" height="1080" preserveAspectRatio="none" viewBox="0 0 1920 1080"><g mask="url(&quot;#SvgjsMask1042&quot;)" fill="none"><rect width="1920" height="1080" x="0" y="0" fill="rgba(255, 255, 255, 1)"></rect><path d="M427.23 668.25L460.57 668.25L460.57 701.59L427.23 701.59z" stroke="rgba(125, 125, 125, 1)"></path><path d="M1164.07 233.25L1192.12 233.25L1192.12 261.3L1164.07 261.3z" fill="rgba(169, 169, 169, 1)"></path><path d="M303.61 314.69L371.72 314.69L371.72 349.34L303.61 349.34z" stroke="rgba(169, 169, 169, 1)"></path><path d="M939.53 98.09 a104.5 104.5 0 1 0 209 0 a104.5 104.5 0 1 0 -209 0z" stroke="rgba(204, 204, 204, 1)"></path><path d="M150.39 1103.97a85.95 85.95 0 1 0 78.1-153.13z" stroke="rgba(125, 125, 125, 1)"></path><path d="M344.52 74.89L427.1 74.89L427.1 95.39L344.52 95.39z" stroke="rgba(125, 125, 125, 1)"></path><path d="M1404.92 721.89L1451.26 721.89L1451.26 820.48L1404.92 820.48z" stroke="rgba(169, 169, 169, 1)"></path><path d="M1718.49 165.66a62.94 62.94 0 1 0-7.8-125.63z" fill="rgba(125, 125, 125, 1)"></path><path d="M987.25 218.43a57.66 57.66 0 1 0 96.5 63.15z" fill="rgba(125, 125, 125, 1)"></path><path d="M1151.81 441.25 a48.16 48.16 0 1 0 96.32 0 a48.16 48.16 0 1 0 -96.32 0z" stroke="rgba(204, 204, 204, 1)"></path><path d="M1850.7 699.3L1893.31 699.3L1893.31 741.91L1850.7 741.91z" fill="rgba(204, 204, 204, 1)"></path><path d="M1766.75 102.4L1843.25 102.4L1843.25 178.9L1766.75 178.9z" fill="rgba(125, 125, 125, 1)"></path><path d="M1096.88 59.52L1172.01 59.52L1172.01 134.65L1096.88 134.65z" fill="rgba(169, 169, 169, 1)"></path><path d="M1438.13 657.83L1540.32 657.83L1540.32 693.02L1438.13 693.02z" stroke="rgba(204, 204, 204, 1)"></path><path d="M456.74 403.59a59.14 59.14 0 1 0 76.33 90.36z" fill="rgba(125, 125, 125, 1)"></path><path d="M475.66 545.01L513.72 545.01L513.72 613.73L475.66 613.73z" fill="rgba(204, 204, 204, 1)"></path><path d="M1069.72 316.66 a78.45 78.45 0 1 0 156.9 0 a78.45 78.45 0 1 0 -156.9 0z" fill="rgba(125, 125, 125, 1)"></path><path d="M1222.79 963.5L1278.92 963.5L1278.92 1019.63L1222.79 1019.63z" fill="rgba(125, 125, 125, 1)"></path><path d="M1475.64 487.33 a11.64 11.64 0 1 0 23.28 0 a11.64 11.64 0 1 0 -23.28 0z" stroke="rgba(204, 204, 204, 1)"></path><path d="M1382.01 166.36 a17.7 17.7 0 1 0 35.4 0 a17.7 17.7 0 1 0 -35.4 0z" fill="rgba(169, 169, 169, 1)"></path><path d="M948.37 46.4 a56.98 56.98 0 1 0 113.96 0 a56.98 56.98 0 1 0 -113.96 0z" fill="rgba(204, 204, 204, 1)"></path><path d="M1760.96 1040.24a60.25 60.25 0 1 0 64.21-101.98z" stroke="rgba(204, 204, 204, 1)"></path><path d="M866.48 912.85a58.59 58.59 0 1 0 116.93-7.64z" fill="rgba(169, 169, 169, 1)"></path></g><defs><mask id="SvgjsMask1042"><rect width="1920" height="1080" fill="#ffffff"></rect></mask></defs></svg>